<?xml version="1.0" standalone="no"?>
<!DOCTYPE svg PUBLIC "-//W3C//DTD SVG 20010904//EN"
 "http://www.w3.org/TR/2001/REC-SVG-20010904/DTD/svg10.dtd">
<svg version="1.0" xmlns="http://www.w3.org/2000/svg"
 width="1200.000000pt" height="1200.000000pt" viewBox="0 0 1200.000000 1200.000000"
 preserveAspectRatio="xMidYMid meet">
<metadata>
Created by potrace 1.15, written by Peter Selinger 2001-2017
</metadata>
<g transform="translate(0.000000,1200.000000) scale(0.100000,-0.100000)"
fill="#000000" stroke="none">
<path d="M11424 10985 c-45 -59 -111 -223 -235 -580 -260 -749 -738 -1772
-1156 -2475 l-86 -145 -281 0 c-260 0 -288 -2 -371 -23 -105 -27 -177 -58
-223 -97 -18 -15 -69 -72 -114 -126 -79 -97 -182 -189 -284 -255 -28 -18 -65
-50 -84 -71 -78 -90 -128 -121 -265 -164 -306 -95 -444 -157 -810 -361 -772
-429 -1940 -1024 -2358 -1199 l-121 -52 -188 7 c-104 4 -198 9 -211 11 -12 2
-78 6 -147 10 -704 36 -1706 127 -2220 201 -513 73 -1154 228 -1488 358 -184
72 -386 106 -511 87 -78 -12 -153 -45 -188 -83 -59 -63 -89 -192 -80 -346 7
-134 37 -251 91 -367 70 -148 162 -245 266 -280 25 -8 157 -26 295 -40 701
-72 1037 -155 1770 -440 444 -173 777 -275 1004 -309 57 -8 105 -17 107 -19 6
-6 -204 -140 -314 -201 -57 -31 -168 -84 -245 -117 -220 -94 -328 -158 -692
-409 -160 -111 -189 -119 -518 -140 -369 -24 -445 -58 -577 -256 -75 -113
-151 -187 -255 -249 -277 -164 -453 -371 -531 -621 -14 -45 -18 -92 -19 -194
0 -127 2 -138 27 -185 112 -213 444 -296 1017 -254 170 12 185 16 436 104 105
36 267 86 360 110 281 73 376 113 741 311 503 273 700 354 982 405 127 23 254
28 384 15 l88 -8 -48 -37 c-65 -52 -126 -123 -154 -179 -32 -67 -36 -165 -10
-226 25 -54 46 -59 84 -18 26 27 98 160 98 182 0 32 165 150 294 211 117 54
221 76 431 88 99 6 225 18 280 26 111 17 375 81 504 121 92 29 101 27 101 -31
0 -56 -29 -223 -55 -314 -71 -254 -154 -436 -268 -588 -126 -167 -183 -278
-208 -404 -27 -136 56 -221 151 -156 46 30 70 74 92 171 29 127 76 211 264
481 130 187 136 198 202 375 90 242 149 487 160 664 l7 102 120 105 c66 59
172 160 235 225 l115 119 113 18 c556 89 1054 378 1365 793 54 71 101 146 168
265 4 7 36 -12 82 -49 271 -215 680 -387 1175 -493 l154 -33 76 -81 c80 -84
105 -120 314 -440 190 -291 298 -409 436 -477 78 -38 139 -45 223 -24 90 23
156 59 245 133 43 35 91 71 106 79 41 21 99 21 147 0 48 -22 67 -13 77 39 11
60 -25 93 -122 115 -84 19 -183 -13 -291 -95 -34 -25 -77 -52 -97 -60 -51 -22
-129 -19 -178 6 -120 61 -284 272 -488 629 -178 311 -253 396 -390 448 -30 11
-118 36 -195 56 -77 19 -167 45 -200 56 -33 12 -109 35 -170 51 -190 52 -314
128 -383 237 -36 55 -65 155 -60 209 3 33 7 39 41 52 36 13 42 13 74 -4 40
-22 77 -79 99 -153 13 -44 18 -51 30 -41 23 19 43 106 52 219 6 89 10 105 25
108 25 5 42 -11 98 -94 59 -88 102 -126 138 -122 l26 3 6 120 c3 66 9 127 13
135 4 11 18 14 52 12 197 -16 485 386 598 836 75 296 114 682 122 1217 l6 340
145 220 c279 420 472 685 834 1145 506 641 719 957 719 1066 0 24 -5 44 -10
44 -64 0 -222 -178 -590 -665 -96 -126 -269 -354 -385 -505 -116 -151 -357
-468 -534 -705 -178 -236 -328 -434 -334 -440 -5 -5 10 28 35 75 129 243 550
1073 629 1241 319 681 583 1384 659 1759 33 161 28 320 -10 320 -5 0 -21 -16
-36 -35z m-8409 -6217 c218 -21 440 -82 625 -169 106 -51 280 -160 314 -198
l19 -21 -106 0 c-307 0 -740 126 -1162 338 -75 37 -87 46 -70 53 26 10 264 9
380 -3z"/>
</g>
</svg>
