<?xml version="1.0" standalone="no"?>
<!DOCTYPE svg PUBLIC "-//W3C//DTD SVG 20010904//EN"
 "http://www.w3.org/TR/2001/REC-SVG-20010904/DTD/svg10.dtd">
<svg version="1.0" xmlns="http://www.w3.org/2000/svg"
 width="50.000000pt" height="50.000000pt" viewBox="0 0 50.000000 50.000000"
 preserveAspectRatio="xMidYMid meet">
<metadata>
Created by potrace 1.15, written by Peter Selinger 2001-2017
</metadata>
<g transform="translate(0.000000,50.000000) scale(0.100000,-0.100000)"
fill="#000000" stroke="none">
<path d="M417 423 c-17 -47 -20 -49 -118 -96 l-101 -47 17 -27 c10 -15 -18 4
-67 45 -78 66 -119 85 -132 64 -3 -5 1 -35 9 -68 19 -77 18 -81 -5 -87 -28 -7
-25 -20 10 -40 17 -10 30 -24 30 -32 0 -7 -14 -18 -30 -24 -19 -6 -30 -17 -30
-29 0 -18 7 -20 58 -18 57 2 57 2 56 33 -2 29 0 31 48 36 28 4 66 15 85 27 42
25 66 15 83 -34 8 -24 20 -37 42 -45 17 -6 34 -8 39 -5 16 10 9 43 -10 49 -11
3 -23 15 -26 26 -4 10 -17 32 -31 48 -15 18 -22 35 -18 45 6 15 8 14 21 -4 19
-27 39 -25 69 5 20 20 25 34 23 64 -3 32 3 46 29 75 18 20 32 41 32 46 0 19
-22 21 -35 4 -12 -17 -13 -16 -8 9 9 47 -21 32 -40 -20z"/>
</g>
</svg>
